<svg viewBox="0 0 32 32" xmlns="http://www.w3.org/2000/svg">
<path fill-rule="evenodd" clip-rule="evenodd" d="M19.256 22.8454C19.4706 23.005 19.7473 23.0449 19.994 22.9469C20.2406 22.8482 20.422 22.627 20.4766 22.3589C21.0559 19.5001 22.4612 12.2642 22.9886 9.6637C23.0286 9.4677 22.9619 9.264 22.8152 9.1331C22.6686 9.0022 22.4652 8.9644 22.2839 9.0351C19.4886 10.1215 10.8802 13.513 7.36159 14.8801C7.13826 14.9669 6.99293 15.1923 7.00027 15.4394C7.00827 15.6872 7.16693 15.9021 7.39559 15.9742C8.97355 16.4698 11.0448 17.1593 11.0448 17.1593C11.0448 17.1593 12.0128 20.2288 12.5175 21.7898C12.5808 21.9858 12.7268 22.1398 12.9195 22.193C13.1115 22.2455 13.3168 22.1902 13.4601 22.0481C14.2708 21.2445 15.5241 20.002 15.5241 20.002C15.5241 20.002 17.9054 21.8353 19.256 22.8454ZM11.9162 16.7715L13.0355 20.6481L13.2841 18.1932C13.2841 18.1932 17.6087 14.0975 20.074 11.763C20.146 11.6944 20.156 11.5796 20.096 11.4991C20.0366 11.4186 19.9273 11.3997 19.8453 11.4543C16.988 13.3702 11.9162 16.7715 11.9162 16.7715Z" />
</svg>
