<svg viewBox="0 0 22 22" xmlns="http://www.w3.org/2000/svg">
<path d="M13.97 20.4143H13.8509C9.78086 20.4143 7.81919 18.8101 7.48002 15.2168C7.44336 14.8409 7.71836 14.5018 8.10336 14.4651C8.47919 14.4284 8.81836 14.7126 8.85502 15.0884C9.12086 17.9668 10.4775 19.0393 13.86 19.0393H13.9792C17.71 19.0393 19.03 17.7193 19.03 13.9884V8.01177C19.03 4.28094 17.71 2.96094 13.9792 2.96094H13.86C10.4592 2.96094 9.10252 4.05177 8.85502 6.9851C8.80919 7.36094 8.49752 7.6451 8.10336 7.60844C7.71836 7.58094 7.44336 7.24177 7.47086 6.86594C7.78252 3.2176 9.75336 1.58594 13.8509 1.58594H13.97C18.4709 1.58594 20.3959 3.51094 20.3959 8.01177V13.9884C20.3959 18.4893 18.4709 20.4143 13.97 20.4143Z" />
<path d="M13.64 11.6875H1.83334C1.45751 11.6875 1.14584 11.3758 1.14584 11C1.14584 10.6242 1.45751 10.3125 1.83334 10.3125H13.64C14.0158 10.3125 14.3275 10.6242 14.3275 11C14.3275 11.3758 14.025 11.6875 13.64 11.6875Z" />
<path d="M11.5959 14.7585C11.4217 14.7585 11.2475 14.6943 11.11 14.5568C10.8442 14.291 10.8442 13.851 11.11 13.5852L13.695 11.0002L11.11 8.41518C10.8442 8.14935 10.8442 7.70935 11.11 7.44352C11.3759 7.17768 11.8159 7.17768 12.0817 7.44352L15.1525 10.5143C15.4184 10.7802 15.4184 11.2202 15.1525 11.486L12.0817 14.5568C11.9442 14.6943 11.77 14.7585 11.5959 14.7585Z" />
</svg>
