<svg viewBox="0 0 24 24" xmlns="http://www.w3.org/2000/svg">
<path fill-rule="evenodd" clip-rule="evenodd" d="M6.65717 2.00054C7.77417 2.01554 8.57017 2.85254 9.57717 3.91154C9.82617 4.17254 10.0952 4.45754 10.3962 4.75754C11.8552 6.21754 11.4402 7.40854 11.1052 8.36454C10.7412 9.40754 10.4262 10.3075 12.3122 12.1935C14.1982 14.0795 15.0972 13.7645 16.1392 13.3975C17.0962 13.0635 18.2842 12.6455 19.7462 14.1055C20.0432 14.4025 20.3232 14.6685 20.5832 14.9155C21.6462 15.9275 22.4862 16.7265 22.5003 17.8465C22.5112 18.8005 21.9312 19.7745 20.4992 21.2065L19.8652 20.7765L20.4022 21.2995C20.0852 21.6245 19.2422 22.4905 17.5912 22.5005H17.5612C15.0692 22.5005 11.8202 20.5165 7.90417 16.6015C3.97217 12.6705 1.98517 9.41154 2.00008 6.91454C2.00917 5.26454 2.87417 4.41954 3.19917 4.10254L3.22691 4.07224L3.29417 4.00454C4.72917 2.56954 5.71517 1.97954 6.65717 2.00054ZM6.63817 3.50054H6.63017C6.1811 3.50054 5.49913 3.95054 4.54799 4.87444L4.357 5.062L4.35917 5.06154C4.35917 5.06154 4.34285 5.08026 4.31503 5.10863L4.24817 5.17554C4.00617 5.41054 3.50517 5.89954 3.50012 6.92254C3.49217 8.35354 4.43317 11.0105 8.96417 15.5405C13.4732 20.0485 16.1262 21.0005 17.5612 21.0005H17.5822C18.6052 20.9945 19.0932 20.4935 19.3282 20.2525C19.3992 20.1795 19.4572 20.1245 19.4982 20.0915C20.4952 19.0885 21.0052 18.3435 21.0002 17.8645C20.9942 17.3765 20.3872 16.8005 19.5482 16.0015C19.2812 15.7485 18.9912 15.4715 18.6852 15.1655C17.8912 14.3745 17.5002 14.5095 16.6352 14.8135C15.4402 15.2325 13.8032 15.8065 11.2522 13.2535C8.70017 10.7025 9.27217 9.06554 9.68917 7.86954C9.99117 7.00554 10.1292 6.61254 9.33617 5.81854C9.02617 5.50854 8.74717 5.21454 8.49017 4.94454C7.69617 4.11054 7.12317 3.50754 6.63817 3.50054ZM15.2463 5.55804C17.3273 5.96204 18.9343 7.56804 19.3393 9.65004C19.4183 10.058 19.1533 10.451 18.7473 10.53C18.6983 10.539 18.6503 10.544 18.6023 10.544C18.2503 10.544 17.9373 10.296 17.8673 9.93804C17.5793 8.45804 16.4383 7.31704 14.9603 7.03004C14.5533 6.95104 14.2883 6.55804 14.3673 6.15104C14.4463 5.74404 14.8463 5.47804 15.2463 5.55804ZM15.1864 2.00624C19.2644 2.45924 22.4314 5.62224 22.8884 9.69924C22.9344 10.1112 22.6384 10.4822 22.2274 10.5282C22.1994 10.5312 22.1704 10.5332 22.1424 10.5332C21.7654 10.5332 21.4414 10.2502 21.3984 9.86724C21.0194 6.49124 18.3974 3.87124 15.0204 3.49624C14.6094 3.45024 14.3124 3.08024 14.3584 2.66824C14.4034 2.25724 14.7704 1.95424 15.1864 2.00624Z" />
</svg>
