<svg viewBox="0 0 24 24" xmlns="http://www.w3.org/2000/svg">
<path fill-rule="evenodd" clip-rule="evenodd" d="M12 22C6.47784 22 2 17.5233 2 12C2 6.47779 6.47779 2 12 2C17.5222 2 22 6.47779 22 12C22 17.5233 17.5222 22 12 22ZM3.5 12C3.5 16.6947 7.30616 20.5 12 20.5C16.6938 20.5 20.5 16.6947 20.5 12C20.5 7.30621 16.6938 3.5 12 3.5C7.30621 3.5 3.5 7.30621 3.5 12Z" />
<path fill-rule="evenodd" clip-rule="evenodd" d="M10.0262 15.9999C9.73396 15.7064 9.73498 15.2315 10.0285 14.9392L12.9807 11.9997L10.0285 9.06018C9.73498 8.76791 9.73396 8.29304 10.0262 7.99952C10.3185 7.70599 10.7934 7.70497 11.0869 7.99723L14.5729 11.4682C14.7142 11.609 14.7937 11.8002 14.7937 11.9997C14.7937 12.1992 14.7142 12.3904 14.5729 12.5312L11.0869 16.0022C10.7934 16.2944 10.3185 16.2934 10.0262 15.9999Z" />
</svg>
