<svg viewBox="0 0 22 22" xmlns="http://www.w3.org/2000/svg">
<path d="M15.125 7.91092C14.7492 7.91092 14.4375 7.59925 14.4375 7.22342V5.95843C14.4375 4.99593 14.025 4.06093 13.31 3.4101C12.5858 2.75011 11.6508 2.44761 10.6608 2.53927C9.01083 2.69511 7.5625 4.38177 7.5625 6.14176V7.03092C7.5625 7.40676 7.25083 7.71842 6.875 7.71842C6.49917 7.71842 6.1875 7.40676 6.1875 7.03092V6.13259C6.1875 3.66677 8.17667 1.39344 10.5325 1.16428C11.9075 1.03594 13.2275 1.46678 14.2358 2.39261C15.235 3.3001 15.8125 4.60177 15.8125 5.95843V7.22342C15.8125 7.59925 15.5008 7.91092 15.125 7.91092Z" />
<path d="M13.75 20.854H8.24999C4.01499 20.854 3.22665 18.8832 3.02499 16.9674L2.33749 11.4766C2.23665 10.4866 2.19999 9.06574 3.16249 8.00241C3.98749 7.08575 5.35332 6.64575 7.33332 6.64575H14.6667C16.6558 6.64575 18.0217 7.09492 18.8375 8.00241C19.7908 9.06574 19.7633 10.4866 19.6625 11.4582L18.975 16.9674C18.7733 18.8832 17.985 20.854 13.75 20.854ZM7.33332 8.02075C5.78415 8.02075 4.72082 8.32325 4.17999 8.92824C3.73082 9.42324 3.58415 10.1841 3.70332 11.3207L4.39082 16.8115C4.54665 18.2782 4.94999 19.4882 8.24999 19.4882H13.75C17.05 19.4882 17.4533 18.2874 17.6092 16.8299L18.2967 11.3207C18.4158 10.2024 18.2692 9.44157 17.82 8.93741C17.2792 8.32325 16.2158 8.02075 14.6667 8.02075H7.33332Z" />
<path d="M14.135 12.0538C13.6217 12.0538 13.2092 11.6413 13.2092 11.1371C13.2092 10.633 13.6217 10.2205 14.1258 10.2205C14.63 10.2205 15.0425 10.633 15.0425 11.1371C15.0425 11.6413 14.6392 12.0538 14.135 12.0538Z" />
<path d="M7.71834 12.0538C7.20501 12.0538 6.79251 11.6413 6.79251 11.1371C6.79251 10.633 7.20501 10.2205 7.70918 10.2205C8.21334 10.2205 8.62584 10.633 8.62584 11.1371C8.62584 11.6413 8.22251 12.0538 7.71834 12.0538Z" />
</svg>
