<svg viewBox="0 0 21 21" xmlns="http://www.w3.org/2000/svg">
<path d="M17.4648 7.8401C16.8785 7.1926 15.9948 6.81635 14.7698 6.6851V6.0201C14.7698 4.82135 14.2623 3.66635 13.3698 2.86135C12.4685 2.03885 11.296 1.65385 10.0798 1.7676C7.98853 1.96885 6.22978 3.9901 6.22978 6.1776V6.6851C5.00478 6.81635 4.12103 7.1926 3.53478 7.8401C2.68603 8.7851 2.71228 10.0451 2.80853 10.9201L3.42103 15.7938C3.60478 17.5001 4.29603 19.2501 8.05853 19.2501H12.941C16.7035 19.2501 17.3948 17.5001 17.5785 15.8026L18.191 10.9113C18.2873 10.0451 18.3048 8.7851 17.4648 7.8401ZM10.2023 2.98385C11.0773 2.9051 11.9085 3.17635 12.556 3.7626C13.1948 4.3401 13.5535 5.1626 13.5535 6.0201V6.6326H7.44603V6.1776C7.44603 4.6201 8.73228 3.12385 10.2023 2.98385ZM7.36728 11.5063H7.35853C6.87728 11.5063 6.48353 11.1126 6.48353 10.6313C6.48353 10.1501 6.87728 9.75635 7.35853 9.75635C7.84853 9.75635 8.24228 10.1501 8.24228 10.6313C8.24228 11.1126 7.84853 11.5063 7.36728 11.5063ZM13.4923 11.5063H13.4835C13.0023 11.5063 12.6085 11.1126 12.6085 10.6313C12.6085 10.1501 13.0023 9.75635 13.4835 9.75635C13.9735 9.75635 14.3673 10.1501 14.3673 10.6313C14.3673 11.1126 13.9735 11.5063 13.4923 11.5063Z" />
</svg>
