<svg viewBox="0 0 20 20" xmlns="http://www.w3.org/2000/svg">
<path fill-rule="evenodd" clip-rule="evenodd" d="M3.54163 10C3.54163 9.65482 3.82145 9.375 4.16663 9.375H15.8333C16.1785 9.375 16.4583 9.65482 16.4583 10C16.4583 10.3452 16.1785 10.625 15.8333 10.625H4.16663C3.82145 10.625 3.54163 10.3452 3.54163 10Z"/>
<path fill-rule="evenodd" clip-rule="evenodd" d="M16.2753 9.55806C16.5194 9.80214 16.5194 10.1979 16.2753 10.4419L12.9419 13.7753C12.6979 14.0194 12.3021 14.0194 12.0581 13.7753C11.814 13.5312 11.814 13.1355 12.0581 12.8914L15.3914 9.55806C15.6355 9.31398 16.0312 9.31398 16.2753 9.55806Z"/>
<path fill-rule="evenodd" clip-rule="evenodd" d="M12.0581 6.22505C12.3021 5.98097 12.6979 5.98097 12.9419 6.22505L16.2753 9.55838C16.5194 9.80246 16.5194 10.1982 16.2753 10.4423C16.0312 10.6863 15.6355 10.6863 15.3914 10.4423L12.0581 7.10893C11.814 6.86486 11.814 6.46913 12.0581 6.22505Z"/>
</svg>
