<svg width="50" height="50" viewBox="0 0 50 50" fill="none" xmlns="http://www.w3.org/2000/svg">
<rect width="50" height="50" rx="25" fill="white" fill-opacity="0.2"/>
<path d="M27 11H23C20.879 11.0023 18.8455 11.8459 17.3457 13.3457C15.8459 14.8455 15.0023 16.879 15 19V31C15.0023 33.121 15.8459 35.1545 17.3457 36.6543C18.8455 38.1541 20.879 38.9977 23 39H27C29.121 38.9977 31.1545 38.1541 32.6543 36.6543C34.1541 35.1545 34.9977 33.121 35 31V19C34.9977 16.879 34.1541 14.8455 32.6543 13.3457C31.1545 11.8459 29.121 11.0023 27 11ZM33 31C32.9983 32.5908 32.3657 34.116 31.2408 35.2408C30.116 36.3657 28.5908 36.9983 27 37H23C21.4092 36.9983 19.884 36.3657 18.7592 35.2408C17.6343 34.116 17.0017 32.5908 17 31V19C17.0017 17.4092 17.6343 15.884 18.7592 14.7592C19.884 13.6343 21.4092 13.0017 23 13H27C28.5908 13.0017 30.116 13.6343 31.2408 14.7592C32.3657 15.884 32.9983 17.4092 33 19V31ZM26 19.4137V30.5863L27.2925 29.2925C27.4801 29.1049 27.7346 28.9994 28 28.9994C28.2654 28.9994 28.5199 29.1049 28.7075 29.2925C28.8951 29.4801 29.0006 29.7346 29.0006 30C29.0006 30.2654 28.8951 30.5199 28.7075 30.7075L25.7075 33.7075C25.6146 33.8005 25.5043 33.8742 25.3829 33.9246C25.2615 33.9749 25.1314 34.0008 25 34.0008C24.8686 34.0008 24.7385 33.9749 24.6171 33.9246C24.4957 33.8742 24.3854 33.8005 24.2925 33.7075L21.2925 30.7075C21.1049 30.5199 20.9994 30.2654 20.9994 30C20.9994 29.7346 21.1049 29.4801 21.2925 29.2925C21.4801 29.1049 21.7346 28.9994 22 28.9994C22.2654 28.9994 22.5199 29.1049 22.7075 29.2925L24 30.5863V19.4137L22.7075 20.7075C22.5199 20.8951 22.2654 21.0006 22 21.0006C21.7346 21.0006 21.4801 20.8951 21.2925 20.7075C21.1049 20.5199 20.9994 20.2654 20.9994 20C20.9994 19.7346 21.1049 19.4801 21.2925 19.2925L24.2925 16.2925C24.3854 16.1995 24.4957 16.1258 24.6171 16.0754C24.7385 16.0251 24.8686 15.9992 25 15.9992C25.1314 15.9992 25.2615 16.0251 25.3829 16.0754C25.5043 16.1258 25.6146 16.1995 25.7075 16.2925L28.7075 19.2925C28.8004 19.3854 28.8741 19.4957 28.9244 19.6171C28.9747 19.7385 29.0006 19.8686 29.0006 20C29.0006 20.1314 28.9747 20.2615 28.9244 20.3829C28.8741 20.5043 28.8004 20.6146 28.7075 20.7075C28.6146 20.8004 28.5043 20.8741 28.3829 20.9244C28.2615 20.9747 28.1314 21.0006 28 21.0006C27.8686 21.0006 27.7385 20.9747 27.6171 20.9244C27.4957 20.8741 27.3854 20.8004 27.2925 20.7075L26 19.4137Z" fill="white"/>
</svg>
