<svg viewBox="0 0 32 32" xmlns="http://www.w3.org/2000/svg">
<path d="M16.8711 20.9956C17.3278 20.9956 17.5146 20.7056 17.5093 20.342C17.4861 18.9728 18.0448 18.2356 19.0535 19.1963C20.1695 20.2592 20.4004 20.9956 21.7556 20.9956H24.1555C24.7615 20.9956 25 20.8099 25 20.5184C25 19.902 23.9343 18.8142 23.0313 18.0156C21.7669 16.8978 21.7076 16.8714 22.7966 15.5257C24.1473 13.855 25.9142 11.7143 24.3513 11.7143H21.3657C20.7867 11.7143 20.7447 12.025 20.5384 12.4878C19.7922 14.1642 18.374 16.3356 17.8355 16.0035C17.2723 15.6571 17.5303 14.285 17.5731 12.2457C17.5843 11.7071 17.5813 11.3379 16.7173 11.1464C16.2456 11.0429 15.7866 11 15.3607 11C13.656 11 12.48 11.6807 13.1482 11.7993C14.3264 12.0086 14.2132 14.4364 13.9387 15.4849C13.4602 17.3106 11.6618 14.0392 10.9126 12.41C10.7318 12.0186 10.6763 11.7143 10.0314 11.7143H7.59023C7.22124 11.7143 7 11.8286 7 12.0828C7 12.5128 9.21991 16.8828 11.3393 19.0613C13.4062 21.1863 15.4491 20.9956 16.8711 20.9956Z" />
</svg>
