<svg width="1180" height="393" viewBox="0 0 1180 393" fill="none" xmlns="http://www.w3.org/2000/svg">
<path d="M392.086 67.2712L395.918 45.6709H291.796L214.756 111.219L189.374 132.819L108.156 201.929H33.8822L8.5 223.529H55.2886L32.701 242.745L21.2055 307.805H217.954L210.175 351.752H233.195L229.363 373.353H295.109L298.941 351.752H275.921L283.7 307.805H316.083L327.608 242.745H295.195L298.595 223.529L302.427 201.929H329.912L342.128 132.819L345.96 111.219L353.739 67.2712H392.115H392.086ZM264.138 201.957H236.652L232.82 223.558L229.421 242.774H114.84L137.687 223.558L163.358 201.957H190.843L272.954 132.848L276.929 129.487L276.324 132.848L264.109 201.957H264.138Z" fill="#2D1CA3"/>
<path d="M747.408 78.9332L720.873 45.6997H490.791L452.501 78.9332L446.797 111.248H405.194L401.362 132.848H426.802L414.586 201.958L410.754 223.558H398.481L377.68 341.096L386.525 351.81L404.358 373.41H634.441L659.909 351.81L672.529 341.096L674.603 329.405L678.435 307.805H704.969L708.801 286.205H682.267L693.359 223.529H705.632L709.464 201.929L721.68 132.819L725.511 111.219H741.674L747.379 78.9045L747.408 78.9332ZM640.405 223.558H628.131L613.236 307.805H506.291V307.862H493.96V307.805L574.745 223.558H587.018L607.704 201.958L652.476 155.253L644.208 201.958L640.376 223.558H640.405ZM617.99 111.248L597.102 132.848L530.319 201.958L509.46 223.558H497.187L456.88 265.265L464.256 223.558H476.529L480.361 201.958L492.577 132.848L496.409 111.248H512.571H634.181H618.019H617.99Z" fill="#2D1CA3"/>
<path d="M1036.38 307.834V307.776H1036.35L1047.85 242.745H1015.43L1018.83 223.529H1038.57L1042.4 201.929L1054.62 132.819L1055.22 129.458H1074.9L1078.13 111.219L1089.71 45.6709H1023.96L950.87 107.858H882.387L857.005 129.458H905.81L901.863 132.819L820.645 201.929L795.263 223.529H775.528L752.94 242.745L741.416 307.805H837.269C837.269 307.805 837.269 307.776 837.269 307.747H857.005C857.005 307.747 857.005 307.776 857.005 307.805H957.9L954.097 329.348H967.753L963.806 351.752L959.974 373.353H1025.72L1029.55 351.752L1033.5 329.348H1087.81L1091.61 307.805H1036.35L1036.38 307.834ZM835.137 242.774L857.984 223.558H877.72L903.39 201.957L985.5 132.848L989.476 129.487L988.871 132.848L976.656 201.957L972.824 223.558H953.088L949.689 242.774H835.108H835.137Z" fill="#2D1CA3"/>
<path d="M433.082 67.2712L436.914 45.6709H332.792L255.752 111.219L230.37 132.819L149.152 201.929H74.8783L49.4961 223.529H96.2847L73.6971 242.745L62.2016 307.805H258.95L251.171 351.752H274.191L270.359 373.353H336.105L339.937 351.752H316.917L324.696 307.805H357.079L368.604 242.745H336.192L339.591 223.529L343.423 201.929H370.908L383.124 132.819L386.956 111.219L394.735 67.2712H433.111H433.082ZM305.134 201.957H277.648L273.816 223.558L270.417 242.774H155.836L178.683 223.558L204.354 201.957H231.839L313.95 132.848L317.926 129.487L317.321 132.848L305.105 201.957H305.134Z" fill="#6767FF"/>
<path d="M788.404 78.9332L761.869 45.6997H531.787L493.497 78.9332L487.793 111.248H446.19L442.358 132.848H467.798L455.582 201.958L451.75 223.558H439.477L418.676 341.096L427.521 351.81L445.354 373.41H675.437L700.906 351.81L713.525 341.096L715.599 329.405L719.431 307.805H745.966L749.797 286.205H723.263L734.355 223.529H746.628L750.46 201.929L762.676 132.819L766.508 111.219H782.67L788.375 78.9045L788.404 78.9332ZM681.401 223.558H669.127L654.232 307.805H547.287V307.862H534.956V307.805L615.741 223.558H628.014L648.701 201.958L693.472 155.253L685.204 201.958L681.372 223.558H681.401ZM658.986 111.248L638.098 132.848L571.315 201.958L550.456 223.558H538.183L497.876 265.265L505.252 223.558H517.525L521.357 201.958L533.573 132.848L537.405 111.248H553.568H675.178H659.015H658.986Z" fill="#6767FF"/>
<path d="M1077.38 307.834V307.776H1077.35L1088.84 242.745H1121L1124.4 223.529H1079.6L1083.43 201.929L1095.64 132.819L1096.25 129.458H1115.93L1119.15 111.219L1130.73 45.6709H1064.99L991.895 107.858H923.412L898.03 129.458H946.835L942.888 132.819L861.671 201.929L836.289 223.529H816.553L793.966 242.745L782.441 307.805H878.295C878.295 307.805 878.295 307.776 878.295 307.747H898.03C898.03 307.747 898.03 307.776 898.03 307.805H998.925L995.122 329.348H1008.78L1004.83 351.752L1001 373.353H1066.75L1070.58 351.752L1074.52 329.348H1128.83L1132.64 307.805H1077.38V307.834ZM876.134 242.774L898.981 223.558H918.716L944.387 201.957L1026.5 132.848L1030.47 129.487L1029.87 132.848L1017.65 201.957L1013.82 223.558H994.085L990.685 242.774H876.105H876.134Z" fill="#6767FF"/>
<path d="M412.57 67.2712L416.402 45.6709H312.28L235.24 111.219L209.858 132.819L128.641 201.929H54.3666L28.9844 223.529H75.773L53.1854 242.745L41.6899 307.805H238.438L230.659 351.752H253.679L249.847 373.353H315.593L319.425 351.752H296.405L304.184 307.805H336.596L348.121 242.745H315.709L319.108 223.529L322.94 201.929H350.426L362.641 132.819L366.473 111.219L374.252 67.2712H412.628H412.57ZM284.651 201.957H257.165L253.333 223.558L249.934 242.774H135.354L158.2 223.558L183.871 201.957H211.356L293.467 132.848L297.443 129.487L296.838 132.848L284.622 201.957H284.651Z" fill="#0F0F16"/>
<path d="M337.144 45.6997H210.867L185.484 67.2713H311.791L337.144 45.6997Z" fill="#2D1CA3"/>
<path d="M767.921 78.9332L741.387 45.6997H511.304L473.015 78.9332L467.31 111.248H425.708L421.876 132.848H447.316L435.1 201.958L431.268 223.558H418.995L398.193 341.096L407.038 351.81L424.872 373.41H654.954L680.423 351.81L693.042 341.096L695.117 329.405L698.948 307.805H725.483L729.315 286.205H702.78L713.872 223.529H726.146L729.978 201.929L742.193 132.819L746.025 111.219H762.188L767.892 78.9045L767.921 78.9332ZM660.889 223.558H648.616L633.721 307.805H526.776V307.862H514.445V307.805L595.23 223.558H607.503L628.189 201.958L672.961 155.253L664.693 201.958L660.861 223.558H660.889ZM638.504 111.248L617.616 132.848L550.833 201.958L529.974 223.558H517.7L477.394 265.265L484.77 223.558H497.043L500.875 201.958L513.09 132.848L516.922 111.248H533.085H654.695H638.532H638.504Z" fill="#0F0F16"/>
<path d="M761.957 111.248H704.566L700.734 132.848H758.125L761.957 111.248Z" fill="#6767FF"/>
<path d="M1056.86 307.834V307.776L1068.36 242.745H1035.95L1039.35 223.529H1059.08L1062.92 201.929L1075.13 132.819L1075.74 129.458H1095.41L1098.64 111.219L1110.22 45.6709H1044.48L971.384 107.858H902.901L877.518 129.458H926.324L922.377 132.819L841.159 201.929L815.777 223.529H796.042L773.454 242.745L761.93 307.805H857.783C857.783 307.805 857.783 307.776 857.783 307.747H877.518C877.518 307.747 877.518 307.776 877.518 307.805H978.413L974.61 329.348H988.267L984.32 351.752L980.488 373.353H1046.23L1050.07 351.752L1054.01 329.348H1108.32L1112.12 307.805H1056.86V307.834ZM855.622 242.774L878.469 223.558H898.204L923.875 201.957L1005.99 132.848L1009.96 129.487L1009.36 132.848L997.14 201.957L993.309 223.558H973.573L970.174 242.774H855.593H855.622Z" fill="#0F0F16"/>
<path d="M439.422 307.776H324.756L320.924 329.377H435.59L439.422 307.776Z" fill="#2D1CA3"/>
<path d="M1073.81 45.6997H964.613L939.23 67.2713H1048.42L1073.81 45.6997Z" fill="#2D1CA3"/>
<path d="M475.089 340.177L476.99 329.376H362.323L360.422 340.177H475.089Z" fill="#0F0F16"/>
<path d="M504.331 329.376L502.43 340.177H536.167L538.069 329.376H504.331Z" fill="#0F0F16"/>
<path d="M667.775 329.376L665.873 340.177H737.698L739.6 329.376H667.775Z" fill="#0F0F16"/>
<path d="M934.706 329.376L932.775 340.177H1030.82L1032.75 329.376H934.706Z" fill="#0F0F16"/>
<path d="M71.4506 280.546L73.3521 269.746H1.90151L0 280.546H71.4506Z" fill="#0F0F16"/>
<path d="M96.0831 269.746L94.1816 280.546H103.66L105.562 269.746H96.0831Z" fill="#0F0F16"/>
<path d="M137.571 269.746L135.641 280.546H180.902L182.804 269.746H137.571Z" fill="#0F0F16"/>
<path d="M780.54 122.048L782.441 111.248H667.775L665.873 122.048H780.54Z" fill="#0F0F16"/>
<path d="M380.186 212.758L382.087 201.958H312.337L310.406 212.758H380.186Z" fill="#0F0F16"/>
<path d="M484.106 111.248L482.176 122.048H502.43L504.331 111.248H484.106Z" fill="#0F0F16"/>
<path d="M594.394 0L592.492 10.8002H612.717L614.619 0H594.394Z" fill="#0F0F16"/>
<path d="M51.6572 126.816L38.9805 137.616H90.7821L103.459 126.816H51.6572Z" fill="#0F0F16"/>
<path d="M15.0684 201.957H128.669L141.346 191.157H27.7451L15.0684 201.957Z" fill="#0F0F16"/>
<path d="M940.872 67.2715L928.195 78.0717H1018.52L1031.22 67.2715H940.872Z" fill="#0F0F16"/>
<path d="M1006.36 212.7H891.085L878.408 223.5H1004.46L1006.36 212.7Z" fill="#0F0F16"/>
<path d="M1021.25 212.7L1019.35 223.5H1033.5L1035.4 212.7H1021.25Z" fill="#0F0F16"/>
<path d="M1165.85 212.7L1163.95 223.5H1178.07L1180 212.7H1165.85Z" fill="#4032DC"/>
<path d="M790.306 382.2L788.404 393H842.77L844.672 382.2H790.306Z" fill="#4032DC"/>
<path d="M133.913 382.2L131.982 393H146.128L148.03 382.2H133.913Z" fill="#4032DC"/>
</svg>
