<svg width="32" height="32" viewBox="0 0 32 32" fill="none" xmlns="http://www.w3.org/2000/svg">
<path d="M0.000105882 18.2594L0.0798332 6.62398C0.0942657 4.51776 1.6128 2.71342 3.71024 2.31029L15.2971 0.083278C18.0815 -0.451889 20.6653 1.66068 20.6462 4.45675L20.5664 16.0921C20.552 18.1983 19.0335 20.0026 16.9361 20.4058L5.34919 22.6328C2.56478 23.1679 -0.019053 21.0554 0.000105882 18.2594Z" fill="#2D1CA3" fill-opacity="0.2"/>
<path d="M5.67735 22.899L5.75707 11.2636C5.77151 9.15741 7.29004 7.35307 9.38748 6.94994L20.9744 4.72292C23.7588 4.18776 26.3426 6.30033 26.3234 9.0964L26.2437 20.7318C26.2293 22.838 24.7107 24.6423 22.6133 25.0454L11.0264 27.2725C8.24202 27.8076 5.65819 25.695 5.67735 22.899Z" fill="#2D1CA3" fill-opacity="0.5"/>
<path d="M11.3541 27.5431L11.4339 15.9077C11.4483 13.8014 12.9668 11.9971 15.0642 11.5939L26.6511 9.36697C29.4355 8.8318 32.0194 10.9444 32.0002 13.7404L31.9205 25.3758C31.906 27.482 30.3875 29.2863 28.2901 29.6895L16.7032 31.9165C13.9188 32.4516 11.335 30.3391 11.3541 27.5431Z" fill="#2D1CA3" fill-opacity="0.8"/>
</svg>
