<svg viewBox="0 0 2000 1200" fill="none" xmlns="http://www.w3.org/2000/svg">
<mask id="path-1-inside-1_2211_467" fill="#ffffff33">
<path d="M0 0H200V200H0V0Z"/>
<path d="M200 0H400V200H200V0Z"/>
<path d="M400 0H600V200H400V0Z"/>
<path d="M600 0H800V200H600V0Z"/>
<path d="M800 0H1000V200H800V0Z"/>
<path d="M1000 0H1200V200H1000V0Z"/>
<path d="M1200 0H1400V200H1200V0Z"/>
<path d="M1400 0H1600V200H1400V0Z"/>
<path d="M1600 0H1800V200H1600V0Z"/>
<path d="M1800 0H2000V200H1800V0Z"/>
<path d="M0 200H200V400H0V200Z"/>
<path d="M200 200H400V400H200V200Z"/>
<path d="M400 200H600V400H400V200Z"/>
<path d="M600 200H800V400H600V200Z"/>
<path d="M800 200H1000V400H800V200Z"/>
<path d="M1000 200H1200V400H1000V200Z"/>
<path d="M1200 200H1400V400H1200V200Z"/>
<path d="M1400 200H1600V400H1400V200Z"/>
<path d="M1600 200H1800V400H1600V200Z"/>
<path d="M1800 200H2000V400H1800V200Z"/>
<path d="M0 400H200V600H0V400Z"/>
<path d="M200 400H400V600H200V400Z"/>
<path d="M400 400H600V600H400V400Z"/>
<path d="M600 400H800V600H600V400Z"/>
<path d="M800 400H1000V600H800V400Z"/>
<path d="M1000 400H1200V600H1000V400Z"/>
<path d="M1200 400H1400V600H1200V400Z"/>
<path d="M1400 400H1600V600H1400V400Z"/>
<path d="M1600 400H1800V600H1600V400Z"/>
<path d="M1800 400H2000V600H1800V400Z"/>
<path d="M0 600H200V800H0V600Z"/>
<path d="M200 600H400V800H200V600Z"/>
<path d="M400 600H600V800H400V600Z"/>
<path d="M600 600H800V800H600V600Z"/>
<path d="M800 600H1000V800H800V600Z"/>
<path d="M1000 600H1200V800H1000V600Z"/>
<path d="M1200 600H1400V800H1200V600Z"/>
<path d="M1400 600H1600V800H1400V600Z"/>
<path d="M1600 600H1800V800H1600V600Z"/>
<path d="M1800 600H2000V800H1800V600Z"/>
<path d="M0 800H200V1000H0V800Z"/>
<path d="M200 800H400V1000H200V800Z"/>
<path d="M400 800H600V1000H400V800Z"/>
<path d="M600 800H800V1000H600V800Z"/>
<path d="M800 800H1000V1000H800V800Z"/>
<path d="M1000 800H1200V1000H1000V800Z"/>
<path d="M1200 800H1400V1000H1200V800Z"/>
<path d="M1400 800H1600V1000H1400V800Z"/>
<path d="M1600 800H1800V1000H1600V800Z"/>
<path d="M1800 800H2000V1000H1800V800Z"/>
<path d="M0 1000H200V1200H0V1000Z"/>
<path d="M200 1000H400V1200H200V1000Z"/>
<path d="M400 1000H600V1200H400V1000Z"/>
<path d="M600 1000H800V1200H600V1000Z"/>
<path d="M800 1000H1000V1200H800V1000Z"/>
<path d="M1000 1000H1200V1200H1000V1000Z"/>
<path d="M1200 1000H1400V1200H1200V1000Z"/>
<path d="M1400 1000H1600V1200H1400V1000Z"/>
<path d="M1600 1000H1800V1200H1600V1000Z"/>
<path d="M1800 1000H2000V1200H1800V1000Z"/>
</mask>
<path d="M199.5 0V200H200.5V0H199.5ZM200 199.5H0V200.5H200V199.5ZM399.5 0V200H400.5V0H399.5ZM400 199.5H200V200.5H400V199.5ZM599.5 0V200H600.5V0H599.5ZM600 199.5H400V200.5H600V199.5ZM799.5 0V200H800.5V0H799.5ZM800 199.5H600V200.5H800V199.5ZM999.5 0V200H1000.5V0H999.5ZM1000 199.5H800V200.5H1000V199.5ZM1199.5 0V200H1200.5V0H1199.5ZM1200 199.5H1000V200.5H1200V199.5ZM1399.5 0V200H1400.5V0H1399.5ZM1400 199.5H1200V200.5H1400V199.5ZM1599.5 0V200H1600.5V0H1599.5ZM1600 199.5H1400V200.5H1600V199.5ZM1799.5 0V200H1800.5V0H1799.5ZM1800 199.5H1600V200.5H1800V199.5ZM2000 199.5H1800V200.5H2000V199.5ZM199.5 200V400H200.5V200H199.5ZM200 399.5H0V400.5H200V399.5ZM399.5 200V400H400.5V200H399.5ZM400 399.5H200V400.5H400V399.5ZM599.5 200V400H600.5V200H599.5ZM600 399.5H400V400.5H600V399.5ZM799.5 200V400H800.5V200H799.5ZM800 399.5H600V400.5H800V399.5ZM999.5 200V400H1000.5V200H999.5ZM1000 399.5H800V400.5H1000V399.5ZM1199.5 200V400H1200.5V200H1199.5ZM1200 399.5H1000V400.5H1200V399.5ZM1399.5 200V400H1400.5V200H1399.5ZM1400 399.5H1200V400.5H1400V399.5ZM1599.5 200V400H1600.5V200H1599.5ZM1600 399.5H1400V400.5H1600V399.5ZM1799.5 200V400H1800.5V200H1799.5ZM1800 399.5H1600V400.5H1800V399.5ZM2000 399.5H1800V400.5H2000V399.5ZM199.5 400V600H200.5V400H199.5ZM200 599.5H0V600.5H200V599.5ZM399.5 400V600H400.5V400H399.5ZM400 599.5H200V600.5H400V599.5ZM599.5 400V600H600.5V400H599.5ZM600 599.5H400V600.5H600V599.5ZM799.5 400V600H800.5V400H799.5ZM800 599.5H600V600.5H800V599.5ZM999.5 400V600H1000.5V400H999.5ZM1000 599.5H800V600.5H1000V599.5ZM1199.5 400V600H1200.5V400H1199.5ZM1200 599.5H1000V600.5H1200V599.5ZM1399.5 400V600H1400.5V400H1399.5ZM1400 599.5H1200V600.5H1400V599.5ZM1599.5 400V600H1600.5V400H1599.5ZM1600 599.5H1400V600.5H1600V599.5ZM1799.5 400V600H1800.5V400H1799.5ZM1800 599.5H1600V600.5H1800V599.5ZM2000 599.5H1800V600.5H2000V599.5ZM199.5 600V800H200.5V600H199.5ZM200 799.5H0V800.5H200V799.5ZM399.5 600V800H400.5V600H399.5ZM400 799.5H200V800.5H400V799.5ZM599.5 600V800H600.5V600H599.5ZM600 799.5H400V800.5H600V799.5ZM799.5 600V800H800.5V600H799.5ZM800 799.5H600V800.5H800V799.5ZM999.5 600V800H1000.5V600H999.5ZM1000 799.5H800V800.5H1000V799.5ZM1199.5 600V800H1200.5V600H1199.5ZM1200 799.5H1000V800.5H1200V799.5ZM1399.5 600V800H1400.5V600H1399.5ZM1400 799.5H1200V800.5H1400V799.5ZM1599.5 600V800H1600.5V600H1599.5ZM1600 799.5H1400V800.5H1600V799.5ZM1799.5 600V800H1800.5V600H1799.5ZM1800 799.5H1600V800.5H1800V799.5ZM2000 799.5H1800V800.5H2000V799.5ZM199.5 800V1000H200.5V800H199.5ZM200 999.5H0V1000.5H200V999.5ZM399.5 800V1000H400.5V800H399.5ZM400 999.5H200V1000.5H400V999.5ZM599.5 800V1000H600.5V800H599.5ZM600 999.5H400V1000.5H600V999.5ZM799.5 800V1000H800.5V800H799.5ZM800 999.5H600V1000.5H800V999.5ZM999.5 800V1000H1000.5V800H999.5ZM1000 999.5H800V1000.5H1000V999.5ZM1199.5 800V1000H1200.5V800H1199.5ZM1200 999.5H1000V1000.5H1200V999.5ZM1399.5 800V1000H1400.5V800H1399.5ZM1400 999.5H1200V1000.5H1400V999.5ZM1599.5 800V1000H1600.5V800H1599.5ZM1600 999.5H1400V1000.5H1600V999.5ZM1799.5 800V1000H1800.5V800H1799.5ZM1800 999.5H1600V1000.5H1800V999.5ZM2000 999.5H1800V1000.5H2000V999.5ZM199.5 1000V1200H200.5V1000H199.5ZM399.5 1000V1200H400.5V1000H399.5ZM599.5 1000V1200H600.5V1000H599.5ZM799.5 1000V1200H800.5V1000H799.5ZM999.5 1000V1200H1000.5V1000H999.5ZM1199.5 1000V1200H1200.5V1000H1199.5ZM1399.5 1000V1200H1400.5V1000H1399.5ZM1599.5 1000V1200H1600.5V1000H1599.5ZM1799.5 1000V1200H1800.5V1000H1799.5ZM0 0V-1H-1V0H0ZM2000 0H2001V-1H2000V0ZM0 1200H-1V1201H0V1200ZM2000 1200V1201H2001V1200H2000ZM0 1H200V-1H0V1ZM1 200V0H-1V200H1ZM200 1H400V-1H200V1ZM400 1H600V-1H400V1ZM600 1H800V-1H600V1ZM800 1H1000V-1H800V1ZM1000 1H1200V-1H1000V1ZM1200 1H1400V-1H1200V1ZM1400 1H1600V-1H1400V1ZM1600 1H1800V-1H1600V1ZM1800 1H2000V-1H1800V1ZM1999 0V200H2001V0H1999ZM1 400V200H-1V400H1ZM1999 200V400H2001V200H1999ZM1 600V400H-1V600H1ZM1999 400V600H2001V400H1999ZM1 800V600H-1V800H1ZM1999 600V800H2001V600H1999ZM1 1000V800H-1V1000H1ZM1999 800V1000H2001V800H1999ZM200 1199H0V1201H200V1199ZM1 1200V1000H-1V1200H1ZM400 1199H200V1201H400V1199ZM600 1199H400V1201H600V1199ZM800 1199H600V1201H800V1199ZM1000 1199H800V1201H1000V1199ZM1200 1199H1000V1201H1200V1199ZM1400 1199H1200V1201H1400V1199ZM1600 1199H1400V1201H1600V1199ZM1800 1199H1600V1201H1800V1199ZM1999 1000V1200H2001V1000H1999ZM2000 1199H1800V1201H2000V1199Z" fill="url(#paint0_linear_2211_467)" style="mix-blend-mode:overlay" mask="url(#path-1-inside-1_2211_467)"/>
<defs>
<linearGradient id="paint0_linear_2211_467" x1="1000" y1="0" x2="1000" y2="1200" gradientUnits="userSpaceOnUse">
<stop stop-color="white" stop-opacity="0"/>
<stop offset="0.49" stop-color="white" stop-opacity="0.6"/>
<stop offset="1" stop-color="white" stop-opacity="0"/>
</linearGradient>
</defs>
</svg>
