<svg width="1181" height="90" viewBox="0 0 1181 90" fill="none" xmlns="http://www.w3.org/2000/svg">
<g filter="url(#filter0_b_2095_1206)">
<mask id="path-1-inside-1_2095_1206" fill="white">
<path fill-rule="evenodd" clip-rule="evenodd" d="M1069.64 90H1075H1076.36H1177C1179.21 90 1181 88.2091 1181 86V63V45V4C1181 1.79086 1179.21 -5.30976e-09 1177 -5.30976e-09H4.00002C1.79088 -5.30976e-09 0 1.79086 0 4V44.9546V63V85.9546C0 88.1637 1.79086 89.9546 4 89.9546H106V89.9092H111.694C112.744 89.9092 113.784 89.7025 114.755 89.3009C115.725 88.8993 116.607 88.3107 117.35 87.5685L137.936 67H1043.16L1063.94 87.657C1064.69 88.3999 1065.58 88.9891 1066.56 89.3911C1067.53 89.7931 1068.58 90 1069.64 90Z"/>
</mask>
<path fill-rule="evenodd" clip-rule="evenodd" d="M1069.64 90H1075H1076.36H1177C1179.21 90 1181 88.2091 1181 86V63V45V4C1181 1.79086 1179.21 -5.30976e-09 1177 -5.30976e-09H4.00002C1.79088 -5.30976e-09 0 1.79086 0 4V44.9546V63V85.9546C0 88.1637 1.79086 89.9546 4 89.9546H106V89.9092H111.694C112.744 89.9092 113.784 89.7025 114.755 89.3009C115.725 88.8993 116.607 88.3107 117.35 87.5685L137.936 67H1043.16L1063.94 87.657C1064.69 88.3999 1065.58 88.9891 1066.56 89.3911C1067.53 89.7931 1068.58 90 1069.64 90Z" fill="#4130B7" fill-opacity="0.1"/>
<path d="M1069.64 90L1069.63 89H1069.64V90ZM106 89.9546H107V90.9546H106V89.9546ZM106 89.9092H105V88.9092H106V89.9092ZM111.694 89.9092L111.694 88.9092L111.694 88.9092L111.694 89.9092ZM114.755 89.3009L114.372 88.3769L114.372 88.3769L114.755 89.3009ZM117.35 87.5685L118.057 88.276L118.057 88.276L117.35 87.5685ZM137.936 67L137.229 66.2926L137.522 66H137.936V67ZM1043.16 67V66H1043.58L1043.87 66.2908L1043.16 67ZM1063.94 87.657L1063.24 88.3663L1063.24 88.3662L1063.94 87.657ZM1066.56 89.3911L1066.17 90.3158L1066.17 90.3158L1066.56 89.3911ZM1075 91H1069.64V89H1075V91ZM1076.36 91H1075V89H1076.36V91ZM1177 91H1076.36V89H1177V91ZM1182 86C1182 88.7614 1179.76 91 1177 91V89C1178.66 89 1180 87.6568 1180 86H1182ZM1182 63V86H1180V63H1182ZM1182 45V63H1180V45H1182ZM1182 4V45H1180V4H1182ZM1177 -1C1179.76 -1 1182 1.23857 1182 4H1180C1180 2.34315 1178.66 1 1177 1V-1ZM4.00002 -1H1177V1H4.00002V-1ZM-1 4C-1 1.23857 1.2386 -1 4.00002 -1V1C2.34316 1 1 2.34315 1 4H-1ZM-1 44.9546V4H1V44.9546H-1ZM1 44.9546V63H-1V44.9546H1ZM1 63V85.9546H-1V63H1ZM1 85.9546C1 87.6114 2.34315 88.9546 4 88.9546V90.9546C1.23858 90.9546 -1 88.716 -1 85.9546H1ZM4 88.9546H106V90.9546H4V88.9546ZM105 89.9546V89.9092H107V89.9546H105ZM111.694 90.9092H106V88.9092H111.694V90.9092ZM115.137 90.2249C114.045 90.6767 112.875 90.9092 111.694 90.9092L111.694 88.9092C112.613 88.9092 113.523 88.7283 114.372 88.3769L115.137 90.2249ZM118.057 88.276C117.221 89.1109 116.229 89.7731 115.137 90.2249L114.372 88.3769C115.222 88.0255 115.993 87.5104 116.643 86.8611L118.057 88.276ZM138.643 67.7074L118.057 88.276L116.643 86.8611L137.229 66.2926L138.643 67.7074ZM1043.16 68H137.936V66H1043.16V68ZM1063.24 88.3662L1042.46 67.7092L1043.87 66.2908L1064.65 86.9478L1063.24 88.3662ZM1066.17 90.3158C1065.08 89.864 1064.08 89.2017 1063.24 88.3663L1064.65 86.9477C1065.3 87.5981 1066.08 88.1142 1066.94 88.4664L1066.17 90.3158ZM1069.64 91C1068.45 91 1067.27 90.7676 1066.17 90.3158L1066.94 88.4664C1067.79 88.8187 1068.71 89 1069.63 89L1069.64 91Z" fill="url(#paint0_linear_2095_1206)" fill-opacity="0.1" mask="url(#path-1-inside-1_2095_1206)"/>
</g>
<defs>
<filter id="filter0_b_2095_1206" x="-34" y="-34" width="1249" height="158" filterUnits="userSpaceOnUse" color-interpolation-filters="sRGB">
<feFlood flood-opacity="0" result="BackgroundImageFix"/>
<feGaussianBlur in="BackgroundImageFix" stdDeviation="17"/>
<feComposite in2="SourceAlpha" operator="in" result="effect1_backgroundBlur_2095_1206"/>
<feBlend mode="normal" in="SourceGraphic" in2="effect1_backgroundBlur_2095_1206" result="shape"/>
</filter>
<linearGradient id="paint0_linear_2095_1206" x1="1181" y1="45" x2="0" y2="45" gradientUnits="userSpaceOnUse">
<stop stop-color="white"/>
<stop offset="1" stop-color="white"/>
</linearGradient>
</defs>
</svg>
